<?xml version="1.0" encoding="UTF-8"?> <svg xmlns="http://www.w3.org/2000/svg" viewBox="0 0 113.39 107.9"><g id="Livello_2" data-name="Livello 2"><g id="Livello_1-2" data-name="Livello 1"><path d="M100.78,38.23l12-12a2.23,2.23,0,0,0-.5-3.51L97.86,14.87a2.21,2.21,0,1,0-2.13,3.88l11.79,6.47L97.26,35.49,60.35,15.22,70.61,5,81,10.65a2.21,2.21,0,1,0,2.13-3.88L71.28.27a2.21,2.21,0,0,0-2.63.38l-12,12-12-12A2.21,2.21,0,0,0,42.1.27L1.15,22.76a2.21,2.21,0,0,0-.5,3.51l12,12-12,12a2.21,2.21,0,0,0,.5,3.51l12.37,6.8V83.2a2.21,2.21,0,0,0,1.15,1.94l41,22.49a2.24,2.24,0,0,0,2.13,0L98.71,85.14a2.21,2.21,0,0,0,1.15-1.94V60.49l12.38-6.8a2.18,2.18,0,0,0,1.12-1.63,2.22,2.22,0,0,0-.62-1.88Zm-44.09,20-36.35-20,36.35-20,36.36,20ZM42.78,5,53,15.22,16.13,35.49,5.87,25.22ZM16.13,41,53,61.23,42.78,71.5,5.87,51.23Zm79.3,40.92L58.91,102V79.31a2.22,2.22,0,1,0-4.43,0V102L18,81.89v-19L42.1,76.18a2.27,2.27,0,0,0,1.07.27,2.18,2.18,0,0,0,1.56-.65l12-11.95,12,11.95a2.2,2.2,0,0,0,1.57.65,2.23,2.23,0,0,0,1.06-.27L95.43,62.92ZM70.61,71.5,60.35,61.23,97.26,41l10.26,10.26Z"></path><path d="M89.65,15.1a2.22,2.22,0,1,0-1.57-.65A2.23,2.23,0,0,0,89.65,15.1Z"></path><path d="M56.69,69.74a2.23,2.23,0,0,0-1.56.65A2.25,2.25,0,0,0,54.48,72a2.23,2.23,0,0,0,.65,1.56,2.21,2.21,0,0,0,3.13,0A2.23,2.23,0,0,0,58.91,72a2.22,2.22,0,0,0-2.22-2.22Z"></path></g></g></svg> 